<?xml version="1.0" standalone="no"?>
<!DOCTYPE svg PUBLIC "-//W3C//DTD SVG 20010904//EN"
 "http://www.w3.org/TR/2001/REC-SVG-20010904/DTD/svg10.dtd">
<svg version="1.0" xmlns="http://www.w3.org/2000/svg"
 width="500.000000pt" height="500.000000pt" viewBox="0 0 500.000000 500.000000"
 preserveAspectRatio="xMidYMid meet">

<g transform="translate(0.000000,500.000000) scale(0.100000,-0.100000)"
fill="#000000" stroke="none">
<path d="M415 4761 c-51 -23 -111 -89 -124 -138 -15 -53 -15 -4193 0 -4246 13
-49 68 -110 123 -136 42 -21 43 -21 2086 -21 l2044 0 43 21 c53 25 106 86 121
138 17 55 17 4187 0 4242 -15 52 -73 117 -122 140 -39 18 -121 19 -2086 19
-1957 0 -2047 -1 -2085 -19z m3853 -394 c23 -15 54 -46 69 -69 l28 -42 0
-1756 0 -1756 -28 -42 c-15 -23 -46 -54 -69 -69 l-42 -28 -1726 0 -1726 0 -42
28 c-23 15 -54 46 -69 69 l-28 42 -3 1735 c-2 1155 1 1748 7 1771 15 49 67
109 115 131 39 18 105 19 1757 16 l1715 -2 42 -28z"/>
<path d="M3750 4294 c-102 -28 -184 -95 -238 -197 -25 -48 -27 -61 -27 -162 0
-101 2 -114 28 -163 41 -79 98 -135 175 -173 62 -31 74 -34 162 -34 88 0 100
3 162 34 77 38 134 94 175 173 26 49 28 62 28 163 0 101 -2 114 -27 162 -55
104 -136 170 -243 198 -72 18 -123 18 -195 -1z"/>
<path d="M2195 4073 c-72 -10 -208 -45 -291 -73 -523 -184 -900 -604 -1031
-1150 -35 -145 -44 -448 -18 -602 106 -635 564 -1132 1192 -1290 127 -33 130
-33 368 -33 261 0 317 7 502 66 118 38 318 139 424 215 336 241 569 608 645
1019 26 139 26 411 0 550 -108 581 -511 1045 -1066 1229 -189 62 -284 76 -509
75 -102 -1 -199 -4 -216 -6z m-17 -996 l2 -368 22 3 c15 2 111 112 300 343
153 187 289 352 302 367 l24 28 176 0 c146 0 178 -3 182 -15 5 -13 -113 -164
-562 -716 l-102 -125 369 -465 c203 -255 369 -470 369 -476 0 -10 -47 -13
-204 -13 l-204 0 -317 390 c-212 261 -324 390 -336 390 -18 0 -19 -16 -19
-390 l0 -390 -180 0 -180 0 0 898 c0 494 3 902 7 906 4 3 84 5 177 4 l171 -3
3 -368z"/>
</g>
</svg>
